<?xml version="1.0" encoding="utf-8"?>
<!-- Generator: Adobe Illustrator 22.0.1, SVG Export Plug-In . SVG Version: 6.00 Build 0)  -->
<svg version="1.1" id="Warstwa_1" xmlns="http://www.w3.org/2000/svg" xmlns:xlink="http://www.w3.org/1999/xlink" x="0px" y="0px"
	 viewBox="0 0 980 220" enable-background="new 0 0 980 220" xml:space="preserve">
<g>
	<path fill="none" stroke="#3A547A" stroke-width="2" stroke-miterlimit="10" d="M28.8,48.3c-2.5-4.7-0.8-8.3,5-10.8
		C39.3,35,45,31.5,51,27.1S61.9,18,65.7,13.3c4.3-5.3,8.4-8,12.4-8h23c5.8,0,8.7,2.8,8.7,8.5v188c0,5.7-2.8,8.5-8.5,8.5H78.3
		c-5.7,0-8.5-2.8-8.5-8.5V66.4c0-3.8,0-7.6,0-11.4h-0.6c-2.9,3.7-6.2,6.9-9.7,9.5c-3.5,2.7-7.1,4.7-10.7,6.3
		c-4.5,1.9-7.8,0.7-10.1-3.7L28.8,48.3z"/>
	<path fill="none" stroke="#3A547A" stroke-width="2" stroke-miterlimit="10" d="M145.3,109.1c0-38.5,6-65.8,18-81.9
		c12-16.1,30.3-24.2,55-24.2s43,8.1,55,24.2s18,43.5,18,81.9s-6,65.8-18,81.9s-30.3,24.2-55,24.2s-43-8.1-55-24.2
		C151.3,174.9,145.3,147.6,145.3,109.1z M187.5,109.1c0,17.6,1.4,34.5,4.3,50.7s11.7,24.4,26.4,24.4c14.7,0,23.5-8.1,26.4-24.4
		s4.3-33.1,4.3-50.7s-1.4-34.5-4.3-50.7S233,34.1,218.2,34.1c-14.7,0-23.5,8.1-26.4,24.4S187.5,91.6,187.5,109.1z"/>
	<path fill="none" stroke="#3A547A" stroke-width="2" stroke-miterlimit="10" d="M316.3,109.1c0-38.5,6-65.8,18-81.9
		c12-16.1,30.3-24.2,55-24.2c24.7,0,43,8.1,55,24.2c12,16.1,18,43.5,18,81.9s-6,65.8-18,81.9c-12,16.1-30.3,24.2-55,24.2
		c-24.7,0-43-8.1-55-24.2C322.2,174.9,316.3,147.6,316.3,109.1z M358.4,109.1c0,17.6,1.4,34.5,4.3,50.7
		c2.9,16.2,11.7,24.4,26.4,24.4c14.7,0,23.5-8.1,26.4-24.4c2.9-16.2,4.3-33.1,4.3-50.7s-1.4-34.5-4.3-50.7
		c-2.9-16.2-11.7-24.4-26.4-24.4c-14.7,0-23.5,8.1-26.4,24.4C359.9,74.7,358.4,91.6,358.4,109.1z"/>
	<path fill="none" stroke="#3A547A" stroke-width="2" stroke-miterlimit="10" d="M487.2,109.1c0-38.5,6-65.8,18-81.9
		c12-16.1,30.3-24.2,55-24.2c24.7,0,43,8.1,55,24.2c12,16.1,18,43.5,18,81.9s-6,65.8-18,81.9c-12,16.1-30.3,24.2-55,24.2
		c-24.7,0-43-8.1-55-24.2C493.2,174.9,487.2,147.6,487.2,109.1z M529.4,109.1c0,17.6,1.4,34.5,4.3,50.7
		c2.9,16.2,11.7,24.4,26.4,24.4c14.7,0,23.5-8.1,26.4-24.4c2.9-16.2,4.3-33.1,4.3-50.7s-1.4-34.5-4.3-50.7
		c-2.9-16.2-11.7-24.4-26.4-24.4c-14.7,0-23.5,8.1-26.4,24.4C530.8,74.7,529.4,91.6,529.4,109.1z"/>
	<path fill="none" stroke="#3A547A" stroke-width="2" stroke-miterlimit="10" d="M658.2,109.1c0-38.5,6-65.8,18-81.9
		S706.4,3,731.1,3s43,8.1,55,24.2c12,16.1,18,43.5,18,81.9s-6,65.8-18,81.9c-12,16.1-30.3,24.2-55,24.2s-43-8.1-55-24.2
		S658.2,147.6,658.2,109.1z M700.3,109.1c0,17.6,1.4,34.5,4.3,50.7c2.9,16.2,11.7,24.4,26.4,24.4s23.5-8.1,26.4-24.4
		s4.3-33.1,4.3-50.7s-1.4-34.5-4.3-50.7s-11.7-24.4-26.4-24.4s-23.5,8.1-26.4,24.4C701.8,74.7,700.3,91.6,700.3,109.1z"/>
	<path fill="none" stroke="#3A547A" stroke-width="2" stroke-miterlimit="10" d="M829.1,109.1c0-38.5,6-65.8,18-81.9
		S877.4,3,902.1,3s43,8.1,55,24.2s18,43.5,18,81.9s-6,65.8-18,81.9s-30.3,24.2-55,24.2s-43-8.1-55-24.2S829.1,147.6,829.1,109.1z
		 M871.3,109.1c0,17.6,1.4,34.5,4.3,50.7c2.9,16.2,11.7,24.4,26.4,24.4s23.5-8.1,26.4-24.4s4.3-33.1,4.3-50.7s-1.4-34.5-4.3-50.7
		s-11.7-24.4-26.4-24.4s-23.5,8.1-26.4,24.4C872.7,74.7,871.3,91.6,871.3,109.1z"/>
</g>
</svg>
