<?xml version="1.0" encoding="utf-8"?>
<!-- Generator: Adobe Illustrator 22.0.1, SVG Export Plug-In . SVG Version: 6.00 Build 0)  -->
<svg version="1.1" id="Warstwa_1" xmlns="http://www.w3.org/2000/svg" xmlns:xlink="http://www.w3.org/1999/xlink" x="0px" y="0px"
	 viewBox="0 0 700 220" style="enable-background:new 0 0 700 220;" xml:space="preserve">
<g>
	<path style="fill:none;stroke:#3A547A;stroke-width:2;stroke-miterlimit:10;" d="M41.8,209.3c-6.9,0-10.4-3-10.4-9v-6.7
		c0-4.8,2.2-9.6,6.7-14.3l41.5-43.7c12.5-13.2,23.9-25,34.3-35.3s15.6-20.8,15.6-31.3s-2.6-18.3-7.8-23.3c-5.2-5-11.9-7.4-19.9-7.4
		c-12.8,0-21.7,3-26.7,8.9s-8.6,12.3-10.8,19c-2.1,6.6-6,8.9-11.7,7.1l-14-4.7c-4.5-1.6-5.8-5.9-3.9-13.1
		c3.6-13.2,11-24.6,22.1-34.1S84.2,7.1,106.1,7.1c22.8,0,39.3,5.9,49.6,17.6s15.4,24.4,15.4,38.1c0,18-7.5,33.8-22.5,47.4
		S120,137,107.7,149.9l-23.9,24.9v0.6c5.6-0.4,10.2-0.6,13.9-0.6h65.1c7,0,10.5,3,10.5,9v16.4c0,6-3.5,9-10.4,9H41.8z"/>
	<path style="fill:none;stroke:#3A547A;stroke-width:2;stroke-miterlimit:10;" d="M197.8,74c0-20.4,5.8-36.6,17.4-48.7
		c11.6-12.1,29.3-18.2,53.1-18.2c25.4,0,43.7,8.5,55.1,25.5c11.3,17,17,41.1,17,72.4c0,41.8-7.5,70.4-22.4,85.8
		c-15,15.5-33.8,23.2-56.6,23.2c-8.9,0-17.7-1.3-26.5-3.8s-15.6-5.9-20.3-10.1c-4.4-4-5.4-7.9-2.9-11.7l9.2-13.7
		c3-4.5,7.3-4.5,12.9,0c2.8,2.2,6.8,4.1,12.2,5.8c5.3,1.6,10.9,2.4,16.7,2.4c9.7,0,18.7-4.6,26.8-13.7c8.1-9.1,12.2-24.6,12.2-46.5
		H301c-4.2,6.3-10,10.8-17.4,13.5s-16.4,4.1-27.1,4.1c-19.4,0-34-6.4-43.9-19.1C202.7,108.6,197.8,92.8,197.8,74z M239.4,74.3
		c0,12.2,2.3,21.1,6.9,26.7c4.6,5.6,11.1,8.3,19.4,8.3c9.2,0,16.3-3.7,21.3-11.2s7.6-15.7,7.6-24.7c0-11.3-2.3-20-6.9-26
		c-4.6-6.1-11.4-9.1-20.3-9.1c-9.4,0-16.5,2.5-21.1,7.6C241.7,50.9,239.4,60.4,239.4,74.3z"/>
	<path style="fill:none;stroke:#3A547A;stroke-width:2;stroke-miterlimit:10;" d="M364.7,110.5c0-37.5,5.8-64.1,17.5-79.9
		s29.5-23.6,53.6-23.6s41.9,7.9,53.6,23.6s17.5,42.4,17.5,79.9s-5.8,64.1-17.5,79.9S459.9,214,435.8,214s-41.9-7.9-53.6-23.6
		S364.7,148,364.7,110.5z M405.8,110.5c0,17.1,1.4,33.6,4.2,49.4c2.8,15.8,11.4,23.7,25.8,23.7c14.4,0,22.9-7.9,25.8-23.7
		s4.2-32.3,4.2-49.4s-1.4-33.6-4.2-49.4s-11.4-23.7-25.8-23.7c-14.4,0-22.9,7.9-25.8,23.7C407.2,76.9,405.8,93.4,405.8,110.5z"/>
	<path style="fill:none;stroke:#3A547A;stroke-width:2;stroke-miterlimit:10;" d="M538.4,121.5c-5.9,0-8.8-2.3-8.8-6.9v-11.9
		c0-4.6,2.9-6.9,8.8-6.9h60.5V35.2c0-5.9,2.3-8.8,6.9-8.8h11.9c4.6,0,6.9,2.9,6.9,8.8v60.5h60.5c5.9,0,8.8,2.3,8.8,6.9v11.9
		c0,4.6-2.9,6.9-8.8,6.9h-60.5V182c0,5.9-2.3,8.8-6.9,8.8h-11.9c-4.6,0-6.9-2.9-6.9-8.8v-60.5H538.4z"/>
</g>
</svg>
