<?xml version="1.0" encoding="utf-8"?>
<!-- Generator: Adobe Illustrator 22.0.1, SVG Export Plug-In . SVG Version: 6.00 Build 0)  -->
<svg version="1.1" id="Warstwa_1" xmlns="http://www.w3.org/2000/svg" xmlns:xlink="http://www.w3.org/1999/xlink" x="0px" y="0px"
	 viewBox="0 0 100 150" style="enable-background:new 0 0 100 150;" xml:space="preserve">
<g>
	<path style="fill:none;stroke:#3A547A;stroke-width:2;stroke-miterlimit:10;" d="M4.8,131.3c-2-2.7-2.3-5.1-0.8-7.1l6.5-8.9
		c2.6-3.6,5.8-3.7,9.5-0.3c2.2,2,5.7,3.9,10.3,5.5s9.3,2.5,13.9,2.5c7.1,0,13-2,17.9-5.9c4.9-4,7.3-9.7,7.3-17.3
		c0-7.2-1.3-13.1-4.1-17.5c-2.7-4.5-6-6.7-9.8-6.7c-3.3,0-6.3,0.3-9.1,0.9c-2.8,0.6-5.6,2.4-8.6,5.3c-2.1,2-5.1,3.1-9.3,3.1H16
		c-5,0-7.5-2-7.5-6v-64c0-4,2-6,6-6h66.8c4,0,6,2,6,6v10.9c0,4-2,6-6,6H34.7v22.7c0,2.5-0.1,4.9-0.4,7.4h0.4
		c3.3-2.8,6.9-4.7,10.9-5.7c4-1,8.3-1.4,12.9-1.4c10.8,0,20,3.7,27.4,11.1c7.5,7.4,11.2,18.8,11.2,34.3c0,14.2-4.7,25.1-14.2,32.5
		s-20.8,11.2-33.8,11.2c-10.9,0-20.3-1.2-28.2-3.6C12.9,137.8,7.5,134.8,4.8,131.3z"/>
</g>
</svg>
