<?xml version="1.0" encoding="utf-8"?>
<!-- Generator: Adobe Illustrator 22.0.1, SVG Export Plug-In . SVG Version: 6.00 Build 0)  -->
<svg version="1.1" id="Warstwa_1" xmlns="http://www.w3.org/2000/svg" xmlns:xlink="http://www.w3.org/1999/xlink" x="0px" y="0px"
	 viewBox="0 0 100 150" style="enable-background:new 0 0 100 150;" xml:space="preserve">
<g>
	<path style="fill:none;stroke:#3A547A;stroke-width:2;stroke-miterlimit:10;" d="M2.2,105.1c0-10.6,3.3-18.9,9.8-24.8
		c6.5-5.9,12.1-9.5,16.8-10.8V69c-5.3-1.7-10.4-5-15.4-9.9C8.5,54.2,6,47.7,6,39.7C6,30,9.9,21.9,17.7,15.4
		c7.8-6.6,18.5-9.8,32.1-9.8c13.6,0,24.3,3.3,32.1,9.8c7.8,6.6,11.7,14.7,11.7,24.3c0,8-2.5,14.5-7.5,19.4S76.2,67.3,71,69v0.5
		c4.7,1.3,10.3,4.9,16.8,10.8s9.8,14.2,9.8,24.8c0,11.4-3.7,20.8-11.2,27.9c-7.5,7.2-19.6,10.8-36.5,10.8s-29.1-3.6-36.5-10.8
		C5.9,125.8,2.2,116.5,2.2,105.1z M30,102.3c0,7,1.5,12.2,4.6,15.6c3.1,3.4,8.2,5.1,15.2,5.1s12.1-1.7,15.2-5.1
		c3.1-3.4,4.6-8.6,4.6-15.6c0-5.3-1.7-10.2-5.1-14.7c-3.4-4.5-8.3-6.7-14.8-6.7s-11.4,2.2-14.8,6.7C31.7,92.1,30,97,30,102.3z
		 M33.1,42.5c0,4.9,1.4,8.8,4.2,11.7c2.8,2.8,7,4.3,12.6,4.3s9.8-1.4,12.6-4.3c2.8-2.8,4.2-6.7,4.2-11.7c0-4.9-1.5-8.9-4.4-11.8
		c-2.9-2.9-7.1-4.4-12.4-4.4c-5.3,0-9.4,1.5-12.4,4.4C34.6,33.6,33.1,37.5,33.1,42.5z"/>
</g>
</svg>
