<?xml version="1.0" encoding="utf-8"?>
<!-- Generator: Adobe Illustrator 22.1.0, SVG Export Plug-In . SVG Version: 6.00 Build 0)  -->
<svg version="1.1" id="Warstwa_1" xmlns="http://www.w3.org/2000/svg" xmlns:xlink="http://www.w3.org/1999/xlink" x="0px" y="0px"
	 viewBox="0 0 50 24" style="enable-background:new 0 0 50 24;" xml:space="preserve">
<style type="text/css">
	.st0{fill:#0084FF;}
	.st1{fill:#44464C;}
</style>
<g>
	<path class="st0" d="M47.9,17.8c-1,1.8-2.4,3.2-4.2,4.2s-3.7,1.6-5.8,1.6c-2.1,0-3.9-0.6-5.7-1.7c-1.8-1-3.2-2.4-4.2-4.2
		s-1.5-3.6-1.5-5.7s0.5-4,1.6-5.8S30.5,3,32.3,2s3.6-1.5,5.7-1.5s4,0.5,5.8,1.6S47,4.5,48,6.3s1.6,3.7,1.6,5.8S49,16,47.9,17.8z
		 M45.2,9.5c0.2-0.1,0.2-0.3,0.2-0.5s-0.1-0.4-0.2-0.5l-1-1.1c-0.2-0.2-0.3-0.2-0.5-0.2s-0.4,0.1-0.5,0.2l-7,7L33,11.2
		C32.8,11,32.7,11,32.5,11c-0.2,0-0.4,0.1-0.5,0.2l-1,1.1c-0.2,0.1-0.2,0.3-0.2,0.5s0.1,0.4,0.2,0.5l4.8,4.8
		c0.1,0.2,0.3,0.2,0.5,0.2c0.2,0,0.4-0.1,0.5-0.2L45.2,9.5z"/>
</g>
<g>
	<path class="st1" d="M12.1,0.5c2.1,0,4,0.5,5.8,1.6s3.2,2.4,4.2,4.2s1.6,3.7,1.6,5.8s-0.5,4-1.6,5.8s-2.4,3.2-4.2,4.2
		s-3.7,1.6-5.8,1.6s-4-0.5-5.8-1.6c-1.8-1-3.2-2.4-4.2-4.2c-1-1.8-1.6-3.7-1.6-5.8s0.5-4,1.6-5.8c1-1.8,2.4-3.2,4.2-4.2
		C8.1,1.1,10,0.5,12.1,0.5z M12.1,2.7c-1.7,0-3.2,0.4-4.6,1.3S4.9,6,4.1,7.4s-1.3,3-1.3,4.6s0.4,3.2,1.3,4.6c0.8,1.4,2,2.6,3.4,3.4
		s3,1.3,4.6,1.3s3.2-0.4,4.6-1.3c1.4-0.8,2.6-2,3.4-3.4c0.8-1.4,1.3-3,1.3-4.6S21,8.8,20.1,7.4c-0.8-1.4-2-2.6-3.4-3.4
		S13.8,2.7,12.1,2.7z M18.6,8.8c0.1,0.1,0.2,0.3,0.2,0.4c0,0.2-0.1,0.3-0.2,0.4l-8,7.9c-0.1,0.1-0.3,0.2-0.4,0.2
		c-0.2,0-0.3-0.1-0.4-0.2l-4.2-4.2c-0.1-0.1-0.2-0.3-0.2-0.4c0-0.2,0.1-0.3,0.2-0.4l1.1-1.1c0.1-0.1,0.2-0.1,0.4-0.1s0.3,0,0.4,0.1
		l2.7,2.8l6.6-6.5c0.1-0.1,0.2-0.1,0.4-0.1s0.3,0.1,0.4,0.2L18.6,8.8z"/>
</g>
</svg>
