<?xml version="1.0" encoding="utf-8"?>
<!-- Generator: Adobe Illustrator 22.0.1, SVG Export Plug-In . SVG Version: 6.00 Build 0)  -->
<svg version="1.1" id="Warstwa_1" xmlns="http://www.w3.org/2000/svg" xmlns:xlink="http://www.w3.org/1999/xlink" x="0px" y="0px"
	 viewBox="0 0 550 110" style="enable-background:new 0 0 550 110;" xml:space="preserve">
<g>
	<path style="fill:none;stroke:#3A547A;stroke-width:1.9775;stroke-miterlimit:10;" d="M15.4,55.3c0-15.7,4-28.2,12-37.5
		c8-9.3,19.5-13.9,34.5-13.9c8.7,0,16,1.3,22,4c6,2.7,10.3,6.6,12.7,11.7c1.6,3.4,1.4,5.7-0.8,6.8l-8.2,4.4
		c-2.9,1.5-5.2,0.7-7.1-2.6c-1.2-2.1-3.4-4-6.6-5.7c-3.2-1.7-7-2.5-11.3-2.5c-9.6,0-16.3,3-20.1,9.1c-3.8,6-5.7,14.8-5.7,26.1
		c0,11.4,1.9,20.1,5.7,26.1c3.8,6,10.5,9.1,20.1,9.1c5.1,0,9.5-1.2,13-3.5c3.5-2.3,6-4.5,7.3-6.6c2.2-3.4,4.6-4.3,7.1-2.6l8.2,5.5
		c2.2,1.5,2.5,3.8,0.7,6.8c-2.6,4.6-7.2,8.5-13.6,11.7s-14.2,4.9-23.4,4.9c-14.8,0-26.3-4.6-34.4-13.9C19.4,83.5,15.4,71,15.4,55.3z
		"/>
	<path style="fill:none;stroke:#3A547A;stroke-width:1.9775;stroke-miterlimit:10;" d="M111.9,68.4c0-11.6,3-20.7,9-27.3
		c6-6.6,14.9-9.9,26.8-9.9c11.8,0,20.8,3.3,26.8,9.9c6,6.6,9,15.7,9,27.3s-3,20.7-9,27.3c-6,6.6-14.9,9.9-26.8,9.9
		c-11.8,0-20.8-3.3-26.8-9.9C114.9,89.1,111.9,80,111.9,68.4z M132.2,68.4c0,8.7,1.3,14.8,4,18.4s6.5,5.4,11.5,5.4
		c5,0,8.9-1.8,11.5-5.4s4-9.8,4-18.4c0-8.7-1.3-14.8-4-18.4s-6.5-5.4-11.5-5.4c-5,0-8.9,1.8-11.5,5.4S132.2,59.7,132.2,68.4z"/>
	<path style="fill:none;stroke:#3A547A;stroke-width:1.9775;stroke-miterlimit:10;" d="M202.3,104.3c-2.7,0-4.1-1.4-4.1-4.1V36.6
		c0-2.7,1.4-4.1,4.1-4.1h10.8c2.7,0,4.1,1.4,4.1,4.1v4c2.1-3.6,4.8-6.1,8-7.4c3.3-1.3,7.2-2,11.8-2c7.2,0,13.1,2.2,17.7,6.7
		c4.7,4.5,7,12.6,7,24.5v37.9c0,2.7-1.4,4.1-4.1,4.1h-10.9c-2.7,0-4.1-1.4-4.1-4.1V67.2c0-9.9-0.7-16.2-2.1-18.8s-4.3-3.9-8.9-3.9
		c-4.8,0-8.4,1.9-10.9,5.6c-2.4,3.7-3.6,11.4-3.6,23.1v26.9c0,2.7-1.4,4.1-4.1,4.1H202.3z"/>
	<path style="fill:none;stroke:#3A547A;stroke-width:1.9775;stroke-miterlimit:10;" d="M277.8,46.2c-2.7,0-4-1.1-4-3.4v-6.8
		c0-2.3,1.3-3.4,4-3.4h4.6v-2.4c0-2.1,0.5-3.9,1.4-5.6l5.3-9.2c1-1.7,2.2-2.6,3.6-2.6h4.8c2.7,0,4.1,1.4,4.1,4.1v15.7h11.1
		c2.7,0,4,1.1,4,3.4v6.8c0,2.3-1.3,3.4-4,3.4h-11.1v33.9c0,4.6,0.3,8,1,10c0.7,2,2.4,3,5.2,3c1.4,0,3-0.2,4.8-0.7s3.2-0.9,4.2-1.4
		c1.6-0.7,2.6-0.2,3.1,1.6l2.1,7.8c0.4,1.5-0.2,2.7-1.8,3.4c-1.5,0.7-3.6,1.3-6.2,1.9c-2.6,0.6-5.3,0.9-7.9,0.9
		c-6.5,0-12.1-1.3-16.7-4c-4.6-2.7-6.9-8.2-6.9-16.6V46.2H277.8z"/>
	<path style="fill:none;stroke:#3A547A;stroke-width:1.9775;stroke-miterlimit:10;" d="M330.9,85.1c0-9.1,4.4-15.7,13.1-19.8
		c8.7-4.1,18.6-6.3,29.8-6.6V56c0-4.2-1-7.2-3.1-8.9c-2.1-1.7-5-2.6-8.8-2.6c-2.6,0-5,0.4-7,1.1c-2,0.8-3.8,1.6-5.3,2.6
		c-1.5,1-2.8,2-4,3c-2.1,1.8-3.8,1.9-5.2,0.3l-5.7-7c-1.4-1.7-1.1-3.5,1-5.3c1.6-1.4,3.5-2.6,5.6-3.7c2.1-1,4.9-2,8.4-3
		c3.5-0.9,8.1-1.4,13.7-1.4c9.5,0,16.8,2.2,21.8,6.6c5.1,4.4,7.6,10.8,7.6,19.3v43.1c0,2.7-1.4,4.1-4.1,4.1h-11.3
		c-2.5,0-3.7-1.4-3.7-4.1v-2.1c-2.7,2.6-5.9,4.5-9.7,5.7s-7.2,1.8-10.4,1.8c-7.5,0-13.1-1.8-17-5.5
		C332.9,96.5,330.9,91.5,330.9,85.1z M351.2,84.7c0,1.6,0.3,3,1,4.1c0.6,1.2,1.6,2,3,2.6s2.9,0.8,4.6,0.8c2.3,0,4.6-0.3,6.8-1
		c2.2-0.6,4.6-2.1,7.3-4.5V71.9c-7.7,0.9-12.8,2-15.4,3.3s-4.5,2.8-5.6,4.2C351.7,81,351.2,82.7,351.2,84.7z"/>
	<path style="fill:none;stroke:#3A547A;stroke-width:1.9775;stroke-miterlimit:10;" d="M407.7,68.4c0-11.6,2.9-20.7,8.8-27.3
		c5.8-6.6,14.8-9.9,26.9-9.9c7.1,0,12.6,0.9,16.5,2.8c3.9,1.9,7.1,4.6,9.4,8.2c1.4,2.1,1.2,3.8-0.7,5.1l-7.2,4.8
		c-2.1,1.4-3.9,0.8-5.4-1.6c-0.8-1.2-2.3-2.5-4.4-3.8s-4.9-2.1-8.1-2.1c-5.2,0-9,1.8-11.6,5.4c-2.6,3.6-3.8,9.8-3.8,18.4
		c0,8.7,1.3,14.8,3.8,18.4c2.6,3.6,6.4,5.4,11.6,5.4c3.7,0,6.7-0.8,9-2.3c2.3-1.5,4.4-3.6,6.4-6c1.7-2.1,3.6-2.4,5.5-0.9l6.4,5
		c1.9,1.5,2,3.5,0.3,6c-1.8,2.6-4.8,5.2-9.1,7.8c-4.3,2.6-10.4,3.8-18.5,3.8c-12.1,0-21-3.3-26.9-9.9
		C410.6,89.1,407.7,80,407.7,68.4z"/>
	<path style="fill:none;stroke:#3A547A;stroke-width:1.9775;stroke-miterlimit:10;" d="M483.4,46.2c-2.7,0-4-1.1-4-3.4v-6.8
		c0-2.3,1.3-3.4,4-3.4h4.6v-2.4c0-2.1,0.5-3.9,1.4-5.6l5.3-9.2c1-1.7,2.2-2.6,3.6-2.6h4.8c2.7,0,4.1,1.4,4.1,4.1v15.7h11.1
		c2.7,0,4,1.1,4,3.4v6.8c0,2.3-1.3,3.4-4,3.4h-11.1v33.9c0,4.6,0.3,8,1,10c0.7,2,2.4,3,5.2,3c1.4,0,3-0.2,4.8-0.7s3.2-0.9,4.2-1.4
		c1.6-0.7,2.6-0.2,3.1,1.6l2.1,7.8c0.4,1.5-0.2,2.7-1.8,3.4c-1.5,0.7-3.6,1.3-6.2,1.9c-2.6,0.6-5.3,0.9-7.9,0.9
		c-6.5,0-12.1-1.3-16.7-4c-4.6-2.7-6.9-8.2-6.9-16.6V46.2H483.4z"/>
</g>
</svg>
