<?xml version="1.0" encoding="utf-8"?>
<!-- Generator: Adobe Illustrator 22.1.0, SVG Export Plug-In . SVG Version: 6.00 Build 0)  -->
<svg version="1.1" id="Warstwa_1" xmlns="http://www.w3.org/2000/svg" xmlns:xlink="http://www.w3.org/1999/xlink" x="0px" y="0px"
	 viewBox="0 0 40 40" style="enable-background:new 0 0 40 40;" xml:space="preserve">
<style type="text/css">
	.st0{fill:#FFFFFF;}
</style>
<g>
	<path id="Fax_1_" class="st0" d="M28.1,14.4c-0.7,0-1.4,0-2.2,0c0-0.6,0-1.3,0-1.9c0-0.4-0.3-0.7-0.7-0.7c-3.5,0-7,0-10.4,0
		c-0.4,0-0.7,0.3-0.7,0.7c0,0.6,0,1.3,0,1.9c-0.7,0-1.4,0-2.2,0c-0.4,0-0.7,0.3-0.7,0.7c0,2.3,0,4.7,0,7c0,0.4,0.3,0.7,0.7,0.7
		c0.7,0,1.4,0,2.2,0c0,0.8,0,1.7,0,2.5c0,0.4,0,0.8,0,1.2c0,0.2,0,0.4,0.2,0.6c0.1,0.1,0.2,0.1,0.3,0.2c0.1,0,0.2,0,0.3,0
		c1.7,0,3.4,0,5.1,0s3.4,0,5.1,0c0.1,0,0.2,0,0.3,0c0.1,0,0.2-0.1,0.3-0.2c0.2-0.2,0.2-0.3,0.2-0.6c0-0.4,0-0.8,0-1.2
		c0-0.8,0-1.7,0-2.5c0.7,0,1.4,0,2.2,0c0.4,0,0.7-0.3,0.7-0.7c0-2.3,0-4.7,0-7C28.8,14.8,28.5,14.4,28.1,14.4z M13,17
		c-0.3,0-0.6-0.3-0.6-0.6c0-0.3,0.3-0.6,0.6-0.6c0.3,0,0.6,0.3,0.6,0.6C13.6,16.7,13.3,17,13,17z M25.2,26.8H14.8v-5.7h10.4V26.8
		L25.2,26.8z M25.2,14.4c-3.5,0-7,0-10.4,0c0-0.4,0-0.8,0-1.2c0-0.4,0.3-0.7,0.7-0.7c3,0,6,0,9,0c0.4,0,0.7,0.3,0.7,0.7
		C25.2,13.6,25.2,14,25.2,14.4z"/>
</g>
</svg>
