<?xml version="1.0" encoding="utf-8"?>
<!-- Generator: Adobe Illustrator 22.0.1, SVG Export Plug-In . SVG Version: 6.00 Build 0)  -->
<svg version="1.1" id="Warstwa_1" xmlns="http://www.w3.org/2000/svg" xmlns:xlink="http://www.w3.org/1999/xlink" x="0px" y="0px"
	 viewBox="0 0 550 110" style="enable-background:new 0 0 550 110;" xml:space="preserve">
<g>
	<path style="fill:none;stroke:#3A547A;stroke-width:1.9775;stroke-miterlimit:10;" d="M82.2,104.3c-3.2,0-4.8-1.7-4.8-5.1V11.4
		c0-3.4,1.6-5.1,4.8-5.1h54.1c3.4,0,5.1,1.5,5.1,4.4v8.1c0,3-1.7,4.4-5.1,4.4H97.4V47h33.3c3.4,0,5.1,1.5,5.1,4.4v8.1
		c0,3-1.7,4.4-5.1,4.4H97.4v35.2c0,3.4-1.6,5.1-4.8,5.1H82.2z"/>
	<path style="fill:none;stroke:#3A547A;stroke-width:1.9775;stroke-miterlimit:10;" d="M152.4,68.4c0-11.6,3-20.7,9-27.3
		c6-6.6,14.9-9.9,26.8-9.9c11.8,0,20.8,3.3,26.8,9.9c6,6.6,9,15.7,9,27.3s-3,20.7-9,27.3c-6,6.6-14.9,9.9-26.8,9.9
		c-11.8,0-20.8-3.3-26.8-9.9C155.4,89.1,152.4,80,152.4,68.4z M172.6,68.4c0,8.7,1.3,14.8,4,18.4s6.5,5.4,11.5,5.4
		c5,0,8.9-1.8,11.5-5.4s4-9.8,4-18.4c0-8.7-1.3-14.8-4-18.4s-6.5-5.4-11.5-5.4c-5,0-8.9,1.8-11.5,5.4S172.6,59.7,172.6,68.4z"/>
	<path style="fill:none;stroke:#3A547A;stroke-width:1.9775;stroke-miterlimit:10;" d="M242.7,104.3c-2.7,0-4.1-1.4-4.1-4.1V36.6
		c0-2.7,1.4-4.1,4.1-4.1h10.8c2.7,0,4.1,1.4,4.1,4.1v5.6c1.2-2.9,3.2-5.5,6-7.7c2.8-2.2,6.1-3.3,10-3.3c2.6,0,4.8,0.3,6.5,1
		c1.6,0.6,2.2,1.7,1.8,3.3l-1.9,8.1c-0.4,1.8-1.6,2.4-3.7,1.6c-1.2-0.4-2.3-0.6-3.4-0.6c-4.4,0-8.1,2.6-10.9,7.9
		c-2.9,5.2-4.3,12.9-4.3,22.9v24.9c0,2.7-1.4,4.1-4.1,4.1H242.7z"/>
	<path style="fill:none;stroke:#3A547A;stroke-width:1.9775;stroke-miterlimit:10;" d="M292.2,74.5V36.6c0-2.7,1.4-4.1,4.1-4.1h10.9
		c2.7,0,4.1,1.4,4.1,4.1v32.9c0,9.9,0.7,16.2,2.1,18.8s4.2,3.9,8.6,3.9c4.7,0,8.3-1.9,10.7-5.6c2.4-3.7,3.7-11.4,3.7-23.1V36.6
		c0-2.7,1.4-4.1,4.1-4.1h10.9c2.7,0,4.1,1.4,4.1,4.1v63.6c0,2.7-1.4,4.1-4.1,4.1h-10.8c-2.7,0-4.1-1.4-4.1-4.1v-4
		c-2.1,3.6-4.8,6.1-8.1,7.4s-7.2,2-11.6,2c-7,0-12.8-2.2-17.4-6.7C294.6,94.5,292.2,86.3,292.2,74.5z"/>
	<path style="fill:none;stroke:#3A547A;stroke-width:1.9775;stroke-miterlimit:10;" d="M378.1,104.3c-2.7,0-4.1-1.4-4.1-4.1V36.6
		c0-2.7,1.4-4.1,4.1-4.1h10.8c2.7,0,4.1,1.4,4.1,4.1v4c1.4-2.9,3.7-5.2,6.9-6.9c3.2-1.7,6.3-2.5,9.1-2.5c5.6,0,10,1,13.1,2.9
		c3.1,1.9,5.3,4.1,6.5,6.5h0.3c4-3.9,7.7-6.5,11-7.7c3.3-1.2,7.5-1.8,12.6-1.8c6.9,0,12.6,2.2,17.4,6.7c4.7,4.5,7.1,12.6,7.1,24.5
		v37.9c0,2.7-1.4,4.1-4.1,4.1h-10.9c-2.7,0-4.1-1.4-4.1-4.1V67.2c0-9.9-0.7-16.2-2.1-18.8c-1.4-2.6-3.9-3.9-7.4-3.9
		c-3.3,0-6.3,1.9-9.1,5.6c-2.7,3.7-4.1,11.4-4.1,23.1v26.9c0,2.7-1.4,4.1-4.1,4.1h-10.9c-2.7,0-4.1-1.4-4.1-4.1V67.2
		c0-9.9-0.7-16.2-2.1-18.8s-3.9-3.9-7.5-3.9c-3.3,0-6.4,1.9-9.1,5.6c-2.8,3.7-4.1,11.4-4.1,23.1v26.9c0,2.7-1.4,4.1-4.1,4.1H378.1z"
		/>
</g>
</svg>
