<?xml version="1.0" encoding="utf-8"?>
<!-- Generator: Adobe Illustrator 22.1.0, SVG Export Plug-In . SVG Version: 6.00 Build 0)  -->
<svg version="1.1" id="Layer_1" xmlns="http://www.w3.org/2000/svg" xmlns:xlink="http://www.w3.org/1999/xlink" x="0px" y="0px"
	 viewBox="0 0 500 500" style="enable-background:new 0 0 500 500;" xml:space="preserve">
<style type="text/css">
	.st0{fill:#979797;stroke:#979797;stroke-width:21.4547;stroke-miterlimit:10;}
</style>
<g transform="translate(0,-952.36218)">
	<path class="st0" d="M255.2,1374.9c5,0,11.6-3,14.8-6l182.4-171.6c8.3-8,9.2-21,0.8-30.3c-7.5-8.4-22.2-8.6-30.3-0.8l-146.2,137.8
		v-261.5c0-11.8-9.6-21.5-21.5-21.5c-11.8,0-21.5,9.6-21.5,21.5v261.5L87.6,1166c-8.2-7.7-22.5-7.2-30.3,0.8
		c-8.3,8.5-7.6,22.4,0.8,30.3l182.4,171.6C245.4,1373.9,250.1,1374.8,255.2,1374.9z"/>
</g>
</svg>
