<?xml version="1.0" encoding="utf-8"?>
<!-- Generator: Adobe Illustrator 22.1.0, SVG Export Plug-In . SVG Version: 6.00 Build 0)  -->
<svg version="1.1" id="Warstwa_1" xmlns="http://www.w3.org/2000/svg" xmlns:xlink="http://www.w3.org/1999/xlink" x="0px" y="0px"
	 viewBox="0 0 227 44" style="enable-background:new 0 0 227 44;" xml:space="preserve">
<style type="text/css">
	.st0{fill:#1B4C9A;}
	.st1{fill-rule:evenodd;clip-rule:evenodd;fill:#9B9B9B;}
</style>
<path id="sk" class="st0" d="M14,43c1.6,0,3.2-0.3,4.6-0.9c1.5-0.6,2.8-1.5,3.9-2.6h0c1.1-1.1,2-2.5,2.6-4c0.6-1.4,0.9-3,0.9-4.7v0
	h-7.4l0,0c0,0.6-0.1,1.3-0.4,1.8c-0.2,0.6-0.6,1.1-1,1.6c-0.4,0.4-1,0.8-1.5,1c-0.6,0.2-1.2,0.4-1.8,0.4l-12.3,0V43H14z M1,13.4
	c0-0.2,0-0.4,0-0.5c0-1.2,0.2-2.4,0.5-3.6c0.1-0.4,0.2-0.7,0.4-1c0.6-1.5,1.5-2.8,2.6-4h0c1.1-1.1,2.5-2,3.9-2.6
	c1.4-0.6,3-0.9,4.6-0.9l12.4,0v0.4v6.7v0.3l-12.4,0c-0.6,0-1.2,0.1-1.8,0.4c-0.6,0.2-1.1,0.6-1.5,1c-0.4,0.4-0.8,1-1,1.6
	c-0.2,0.6-0.4,1.2-0.4,1.8s0.1,1.3,0.4,1.8c0.2,0.6,0.6,1.1,1,1.6c0.4,0.4,1,0.8,1.5,1c0.6,0.2,1.2,0.4,1.8,0.4l13.1,0v0h2.9
	c2.8,0,3.8-1,5.6-3.7l8.5-13.3h9.1L42.3,16.5c-2.1,3.4-3.6,4.3-4.7,4.9c1.1,0.6,2.6,1.6,4.7,4.9L53,43h-9.1l-9.1-14.2
	c-1.7-2.7-2.8-3.7-5.6-3.7h-2.9v0h-0.1h-13c-1.6,0-3.2-0.3-4.6-0.9c-1.5-0.6-2.8-1.5-3.9-2.6l0,0c-1.1-1.1-2-2.5-2.6-4
	C1.4,16.3,1.1,14.9,1,13.4z M67.5,43.6h-1V0.4h1V43.6z"/>
<path id="szczerba" class="st1" d="M211.5,7.1l1.9,4.8h-3.8L211.5,7.1z M208.4,15.2h6.2l1.3,3.2h3.9l-7.2-17.7h-2l-7.3,17.7h3.9
	L208.4,15.2z M191.2,10.8h4.2c1.8,0,2.5,1,2.5,2.1c0,1.1-0.6,2.1-2.5,2.1h-4.2V10.8z M191.2,4.1h3.7c2,0,2.3,1.1,2.3,1.9
	c0,0.8-0.5,1.9-2.3,1.9h-3.7V4.1z M187.7,0.8v17.7h7c5,0,6.5-2.3,6.5-5.1c0-2.1-1.2-3.7-3-4.1c1.4-0.6,2.3-1.8,2.3-3.8
	c0-1.7-0.9-4.7-6-4.7H187.7z M173.4,4.1h2.9c2.3,0,4,1.1,4,3.4c0,2.4-1.8,3.4-4,3.4h-2.9V4.1z M169.9,0.8v17.7h3.5v-4.3h1.9
	c1.7,0,2.2,0.5,3.5,2.6l1.1,1.8h3.9l-1.5-2.3c-1.1-1.7-1.9-2.6-2.6-3.1c2.4-0.9,3.8-2.9,3.8-5.6c0-3.7-2.7-6.7-7.7-6.7H169.9z
	 M157.7,7.9V4.1h8.3V0.8h-11.8v17.7H166v-3.3h-8.3v-4h7.7V7.9H157.7z M150.2,18.5v-3.3h-8.3L150,2.8V0.8h-12.3v3.3h7.4L137,16.4v2
	H150.2z M127.7,0.6c-5,0-9,4-9,9c0,5,4,9,9,9c2.6,0,5-1.1,6.7-2.9l-2.3-2.1c-1.1,1.1-2.7,1.7-4.4,1.7c-3.1,0-5.5-2.3-5.5-5.7
	c0-3.4,2.4-5.7,5.5-5.7c1.7,0,3.3,0.6,4.4,1.7l2.3-2.1C132.7,1.7,130.3,0.6,127.7,0.6z M115.9,18.5v-3.3h-8.3l8.1-12.3V0.8h-12.3
	v3.3h7.4l-8.1,12.4v2H115.9z M92.5,0.6C88.9,0.6,86,2.7,86,6c0,3.1,2.6,4.4,6,4.8l1.4,0.2c1.8,0.2,3.3,0.7,3.3,2.2
	c0,1.3-1.3,2.1-3.4,2.2h-0.2c-2.6,0-4.4-1.3-5.2-2.4l-2.3,2.1c1.4,1.9,4,3.6,7.5,3.6h0.2c3.9,0,6.9-2.1,6.9-5.5c0-3.7-2.7-5-6.3-5.4
	l-1.4-0.1c-1.6-0.2-3-0.6-3-1.7c0-1.5,1.9-2,3.1-2h0.2c1.3,0,3.2,0.7,4.6,1.7l2.3-2.1c-1.8-1.7-4.3-2.9-6.8-2.9H92.5z"/>
<path id="kasinski" class="st1" d="M213.1,39.8V28.6h2.1v-3.3h-7.7v3.3h2.1v11.1h-2.1V43h7.7v-3.3H213.1z M200.2,43h3.9l-4.3-6.7
	c-1-1.6-1.6-2-2.1-2.3c0.5-0.3,1-0.7,2-2.1l4.2-6.5h-3.9l-3.5,5.5c-0.8,1.2-1.2,1.6-2.4,1.6h-1.5v-7h-3.5V43h3.5v-7.3h1.6
	c1.2,0,1.6,0.4,2.4,1.6L200.2,43z M177.5,25.2c-3.7,0.1-6.5,2.1-6.5,5.4c0,3.1,2.6,4.4,6,4.8l1.4,0.2c1.8,0.2,3.3,0.7,3.3,2.2
	c0,1.3-1.3,2.1-3.4,2.2h-0.2c-2.6,0-4.4-1.3-5.2-2.4l-2.3,2.1c1.4,1.9,4,3.6,7.5,3.6h0.2c3.9,0,6.9-2.1,6.9-5.5c0-3.7-2.7-5-6.3-5.4
	l-1.4-0.1c-1.6-0.2-3-0.6-3-1.7c0-1.5,1.9-2,3.1-2h0.2c1.3,0,3.2,0.7,4.6,1.7l2.3-2.1c-1.8-1.7-4.3-2.9-6.8-2.9H177.5z M166.8,43
	V25.4h-3.5v11.1l-8.4-11.1h-2V43h3.5V31.9l8.4,11.1H166.8z M160.1,24.1l3.2-3.7h-3.4l-2.1,3.7H160.1z M145.7,39.8V28.6h2.1v-3.3
	h-7.7v3.3h2.1v11.1h-2.1V43h7.7v-3.3H145.7z M128.5,25.2c-3.7,0.1-6.5,2.1-6.5,5.4c0,3.1,2.6,4.4,6,4.8l1.4,0.2
	c1.8,0.2,3.3,0.7,3.3,2.2c0,1.3-1.3,2.1-3.4,2.2h-0.2c-2.6,0-4.4-1.3-5.2-2.4l-2.3,2.1c1.4,1.9,4,3.6,7.5,3.6h0.2
	c3.9,0,6.9-2.1,6.9-5.5c0-3.7-2.7-5-6.3-5.4l-1.4-0.1c-1.6-0.2-3-0.6-3-1.7c0-1.5,1.9-2,3.1-2h0.2c1.3,0,3.2,0.7,4.5,1.7l2.3-2.1
	c-1.8-1.7-4.3-2.9-6.8-2.9H128.5z M111.5,31.7l1.9,4.8h-3.8L111.5,31.7z M108.3,39.8h6.2l1.3,3.2h3.9l-7.2-17.7h-2L103.2,43h3.9
	L108.3,39.8z M97.1,43h3.9l-4.3-6.7c-1-1.6-1.6-2-2.1-2.3c0.5-0.3,1-0.7,2-2.1l4.2-6.5h-3.9l-3.5,5.5c-0.8,1.2-1.2,1.6-2.4,1.6h-1.5
	v-7h-3.5V43h3.5v-7.3h1.6c1.2,0,1.6,0.4,2.4,1.6L97.1,43z"/>
</svg>
