<?xml version="1.0" encoding="utf-8"?>
<!-- Generator: Adobe Illustrator 22.1.0, SVG Export Plug-In . SVG Version: 6.00 Build 0)  -->
<svg version="1.1" id="Warstwa_1" xmlns="http://www.w3.org/2000/svg" xmlns:xlink="http://www.w3.org/1999/xlink" x="0px" y="0px"
	 viewBox="0 0 40 40" style="enable-background:new 0 0 40 40;" xml:space="preserve">
<style type="text/css">
	.st0{fill:#FFFFFF;}
</style>
<g>
	<path class="st0" d="M23.6,11.5h-6.2c-0.9,0-1.6,0.7-1.6,1.6v12.7c0,0.9,0.7,1.6,1.6,1.6h6.2c0.9,0,1.6-0.7,1.6-1.6V13.1
		C25.3,12.2,24.5,11.5,23.6,11.5z M20.5,26.8c-0.6,0-1.1-0.4-1.1-0.8c0-0.5,0.5-0.8,1.1-0.8s1.1,0.4,1.1,0.8
		C21.7,26.5,21.2,26.8,20.5,26.8z M24,24.4h-6.9V13.6H24V24.4z"/>
</g>
</svg>
