<?xml version="1.0" encoding="utf-8"?>
<!-- Generator: Adobe Illustrator 22.1.0, SVG Export Plug-In . SVG Version: 6.00 Build 0)  -->
<svg version="1.1" id="Layer_1" xmlns="http://www.w3.org/2000/svg" xmlns:xlink="http://www.w3.org/1999/xlink" x="0px" y="0px"
	 viewBox="0 0 500 500" style="enable-background:new 0 0 500 500;" xml:space="preserve">
<style type="text/css">
	.st0{stroke:#000000;stroke-width:8;stroke-miterlimit:10;}
</style>
<g transform="translate(0,-952.36218)">
	<path class="st0" d="M250,1326.4c1.9,0,4.3-1.1,5.5-2.3l68-64c3.1-3,3.4-7.8,0.3-11.3c-2.8-3.1-8.3-3.2-11.3-0.3l-54.5,51.4v-213.5
		c0-4.4-3.6-8-8-8s-8,3.6-8,8v213.5l-54.5-51.4c-3-2.9-8.4-2.7-11.3,0.3c-3.1,3.2-2.8,8.4,0.3,11.3l68,64
		C246.3,1326,248.1,1326.3,250,1326.4z"/>
</g>
</svg>
