<?xml version="1.0" encoding="utf-8"?>
<!-- Generator: Adobe Illustrator 22.1.0, SVG Export Plug-In . SVG Version: 6.00 Build 0)  -->
<svg version="1.1" id="Warstwa_1" xmlns="http://www.w3.org/2000/svg" xmlns:xlink="http://www.w3.org/1999/xlink" x="0px" y="0px"
	 viewBox="0 0 66 46" style="enable-background:new 0 0 66 46;" xml:space="preserve">
<style type="text/css">
	.st0{fill:none;stroke:#FFFFFF;stroke-width:2;stroke-miterlimit:10;}
</style>
<g>
	<line class="st0" x1="34.7" y1="32.3" x2="39.9" y2="26.7"/>
	<path class="st0" d="M37,34.7c0,0,4.8-4.6,5.8-4.7c1.7-0.3,2.4-0.7,3.1-1.2c1.2-1,3-5.8,3.7-5.8c1.1,0,3.7,0,3.7,0l2-2.6
		c0,0-1.3-1.4-1.5-1.6c0.2-0.7,0-2-2-2.6c0-1-1.7-1.8-1.7-1.8s-1.4,1-1.4,2C47.6,16.5,46.3,18,46,18c-1.8,0-5.8,0-5.8,0
		c-3.3-2.5-8.4-4.5-14.5-1.5c-2,1-4.2,1.5-6.4,1.5l0,0c-1.4,0-2.7-0.5-3.6-1.5l0,0c-1-1-2.3-1.5-3.6-1.5H9"/>
	<path class="st0" d="M35.2,38.8c0,0-7.2-5.7-8.2-6.8c0-1.8,0-3.6,0-5c-1.3-0.3-6.2-2.8-6.9-5.8"/>
	<path class="st0" d="M30.3,21.9c0.4,0.4,3.7,3.5,3.5,4.4c-0.2,0.8-1.1,5.3-1.1,5.3L38,37"/>
	<line class="st0" x1="33.6" y1="27.3" x2="37.4" y2="29.2"/>
	<line class="st0" x1="36" y1="8" x2="22" y2="8"/>
	<line class="st0" x1="20" y1="8" x2="18" y2="8"/>
	<line class="st0" x1="16" y1="8" x2="14" y2="8"/>
	<line class="st0" x1="20" y1="29" x2="13" y2="29"/>
	<line class="st0" x1="11" y1="29" x2="9" y2="29"/>
</g>
</svg>
