<?xml version="1.0" encoding="utf-8"?>
<!-- Generator: Adobe Illustrator 22.1.0, SVG Export Plug-In . SVG Version: 6.00 Build 0)  -->
<svg version="1.1" id="Warstwa_1" xmlns="http://www.w3.org/2000/svg" xmlns:xlink="http://www.w3.org/1999/xlink" x="0px" y="0px"
	 viewBox="0 0 220 135" style="enable-background:new 0 0 220 135;" xml:space="preserve">
<style type="text/css">
	.st0{fill:#005EB4;}
	.st1{fill:#424141;}
</style>
<g>
	<path class="st0" d="M45.6,17c-4-1.3-7.5-2-10.4-2c-2.7,0-4.9,0.5-6.5,1.5S26.3,19,26.3,21c0,2.5,1.1,4.3,3.4,5.6
		c2.3,1.3,5.9,2.6,10.7,4c4.8,1.4,8.8,2.8,11.8,4.2c3.1,1.4,5.8,3.5,8,6.3c2.2,2.8,3.3,6.5,3.3,11.1c0,4.5-1.2,8.3-3.5,11.5
		c-2.4,3.2-5.6,5.7-9.8,7.3c-4.1,1.7-8.8,2.5-14.1,2.5c-5.7,0-11.2-1-16.7-3c-5.5-2-10.2-4.7-14.2-8.2l6.3-12.9
		c3.5,3.2,7.6,5.8,12.2,7.7c4.6,1.9,8.8,2.9,12.6,2.9c3.3,0,5.8-0.6,7.6-1.8c1.8-1.2,2.8-2.9,2.8-5.2c0-1.8-0.6-3.3-1.9-4.4
		c-1.2-1.2-2.8-2.1-4.7-2.9c-1.9-0.7-4.5-1.6-7.9-2.5c-4.8-1.3-8.7-2.7-11.8-4c-3-1.3-5.6-3.4-7.9-6.1c-2.2-2.7-3.3-6.4-3.3-10.9
		c0-4.2,1.1-7.9,3.4-11.1c2.3-3.2,5.4-5.6,9.5-7.3c4.1-1.7,8.8-2.5,14.2-2.5c4.8,0,9.5,0.7,14.2,2.1c4.7,1.4,8.8,3.3,12.4,5.6
		L57,22.3C53.4,20.1,49.6,18.3,45.6,17z"/>
</g>
<g>
	<path class="st0" d="M217.6,71.5h-18.9l-20.2-28.7l-10,11.1v17.6h-15.8v-70h15.8v32.6l29-32.6h18.4l-26.4,29.1L217.6,71.5z"/>
</g>
<g>
	<path class="st1" d="M42.8,132.1l-1.3-3.3h-8.2l-1.3,3.3h-5.1l8.1-18.9h5.1l7.9,18.9H42.8z M34.8,124.9H40l-2.6-6.8L34.8,124.9z"/>
	<path class="st1" d="M66.5,132.1l-2.8-5.2h-0.1h-3.6v5.2h-4.9v-18.9h8.5c2.5,0,4.4,0.6,5.8,1.7s2.1,2.8,2.1,4.9
		c0,1.4-0.3,2.7-0.9,3.7c-0.6,1-1.4,1.8-2.5,2.4l3.9,6.2H66.5z M60.1,122.9h3.6c1,0,1.8-0.3,2.3-0.8s0.8-1.2,0.8-2.2
		c0-0.9-0.3-1.6-0.8-2.1s-1.3-0.7-2.3-0.7h-3.6V122.9z"/>
	<path class="st1" d="M78.5,113.1h16.2v4.1H89v14.8h-4.9v-14.8h-5.6V113.1z"/>
	<path class="st1" d="M115,113.1h4.6v18.9h-4.3l-8.6-11.3v11.3h-4.6v-18.9h4.3l8.6,11.4L115,113.1z"/>
	<path class="st1" d="M128.7,113.1h14.9v3.9h-10v3.5h9v3.9l-9,0v3.6h10.3v3.9h-15.2V113.1z"/>
	<path class="st1" d="M163.7,132.1l-2.8-5.2h-0.1h-3.6v5.2h-4.9v-18.9h8.5c2.5,0,4.4,0.6,5.8,1.7s2.1,2.8,2.1,4.9
		c0,1.4-0.3,2.7-0.9,3.7c-0.6,1-1.4,1.8-2.5,2.4l3.9,6.2H163.7z M157.3,122.9h3.6c1,0,1.8-0.3,2.3-0.8s0.8-1.2,0.8-2.2
		c0-0.9-0.3-1.6-0.8-2.1s-1.3-0.7-2.3-0.7h-3.6V122.9z"/>
	<path class="st1" d="M176.5,113.1h16.3v3.2l-10,11.7h10.2v4h-16.8v-3.2l10-11.7h-9.6V113.1z"/>
	<path class="st1" d="M217.7,113.1l-6.8,12.9v6h-4.9v-5.9l-7-13h4.9l4.5,8.1l4.4-8.1H217.7z"/>
</g>
<g>
	<path class="st0" d="M21.4,115c1.3,1.2,2,2.8,2,4.9c0,2.2-0.7,4-2,5.2c-1.3,1.2-3.2,1.8-5.6,1.8h-3.4v5.2H7.5v-18.9h8.3
		C18.2,113.3,20.1,113.8,21.4,115z M17.9,122.3c0.5-0.5,0.8-1.2,0.8-2.2c0-0.9-0.3-1.6-0.8-2.1c-0.5-0.5-1.3-0.7-2.3-0.7h-3.1v5.8
		h3.1C16.6,123,17.4,122.8,17.9,122.3z"/>
</g>
</svg>
