<?xml version="1.0" encoding="utf-8"?>
<!-- Generator: Adobe Illustrator 22.1.0, SVG Export Plug-In . SVG Version: 6.00 Build 0)  -->
<svg version="1.1" id="Warstwa_1" xmlns="http://www.w3.org/2000/svg" xmlns:xlink="http://www.w3.org/1999/xlink" x="0px" y="0px"
	 viewBox="0 0 60 60" style="enable-background:new 0 0 60 60;" xml:space="preserve">
<style type="text/css">
	.st0{fill:none;stroke:#FFFFFF;stroke-width:2;stroke-miterlimit:10;}
	.st1{fill:none;stroke:#FFFFFF;stroke-width:2;stroke-linecap:round;stroke-linejoin:round;stroke-miterlimit:10;}
</style>
<g>
	<path class="st0" d="M47,15h6v-3c0-2.2-1.8-4-4-4"/>
	<path class="st1" d="M45,12c0-2.2,1.8-4,4-4H15c-2.2,0-4,1.8-4,4v37c0,2.2-1.8,4-4,4h34c2.2,0,4-1.8,4-4V12z"/>
	<line class="st0" x1="31" y1="22" x2="38" y2="22"/>
	<line class="st0" x1="31" y1="17" x2="38" y2="17"/>
	<line class="st0" x1="17" y1="30" x2="38" y2="30"/>
	<line class="st0" x1="17" y1="35" x2="38" y2="35"/>
	<line class="st0" x1="17" y1="40" x2="31" y2="40"/>
	<path class="st0" d="M28,26v-2c0-1.3-2.8-3-5-3s-5,1.7-5,3v2"/>
	<path class="st0" d="M23,14c-1.6,0-3,1.1-3,2.5v2c0,1.4,1.4,2.5,3,2.5c1.6,0,3-1.1,3-2.5v-2C26,15.1,24.6,14,23,14z"/>
</g>
</svg>
