<?xml version="1.0" encoding="utf-8"?>
<!-- Generator: Adobe Illustrator 22.1.0, SVG Export Plug-In . SVG Version: 6.00 Build 0)  -->
<svg version="1.1" id="Warstwa_1" xmlns="http://www.w3.org/2000/svg" xmlns:xlink="http://www.w3.org/1999/xlink" x="0px" y="0px"
	 viewBox="0 0 60 60" style="enable-background:new 0 0 60 60;" xml:space="preserve">
<style type="text/css">
	.st0{fill:none;stroke:#FFFFFF;stroke-width:2;stroke-miterlimit:10;}
</style>
<g>
	<path class="st0" d="M18,28V18c0-6,5.4-11,12-11s12,5,12,11v10"/>
	<path class="st0" d="M38,28c0,0,0-4.2,0-6c0,0-1.5-3-6-3c-4.1,0-7-1.6-7-4"/>
	<path class="st0" d="M26,17.2c-1.2,1-4,3.4-4,5.8c0,1.8,0,5,0,5"/>
	<path class="st0" d="M47,53H14l-3.8-21.8c-0.1-0.6,0.4-1.2,1-1.2h38.6c0.6,0,1.1,0.6,1,1.2L47,53z"/>
	<line class="st0" x1="25" y1="26" x2="28" y2="26"/>
	<line class="st0" x1="32" y1="26" x2="35" y2="26"/>
	<circle class="st0" cx="30" cy="41" r="3"/>
</g>
</svg>
