<?xml version="1.0" encoding="utf-8"?>
<!-- Generator: Adobe Illustrator 22.1.0, SVG Export Plug-In . SVG Version: 6.00 Build 0)  -->
<svg version="1.1" id="Warstwa_1" xmlns="http://www.w3.org/2000/svg" xmlns:xlink="http://www.w3.org/1999/xlink" x="0px" y="0px"
	 viewBox="0 0 60 60" style="enable-background:new 0 0 60 60;" xml:space="preserve">
<style type="text/css">
	.st0{fill:none;stroke:#FFFFFF;stroke-width:2;stroke-linejoin:round;stroke-miterlimit:10;}
	.st1{fill:none;stroke:#FFFFFF;stroke-width:2;stroke-miterlimit:10;}
</style>
<g>
	<path class="st0" d="M23,46c0.4-0.4,0.8-1,2-1c1.2,0,12.8,0,14,0c1.1,0,7.2-6.1,8-7c0.7-0.8,4.1-5.8,5-8c-0.6-0.8-2.1-1.4-4-1
		c-1.8,0.4-2.8,1.7-4,4l-4.6,2.4"/>
	<path class="st0" d="M29,39c0,0,7,0,8,0c4,0,4-5,0-5c-1,0-2.5,0-5.3,0c-0.8,0-2.4-2-3.7-2c-0.6,0-3.6,0-5,0c-1.4,0-3,1.1-4,2
		c-1.5,1.5-4,4-4,4"/>
	<rect x="13" y="36" transform="matrix(0.7071 -0.7071 0.7071 0.7071 -26.6335 24.701)" class="st0" width="7.1" height="17"/>
	<line class="st0" x1="13" y1="41" x2="15" y2="43"/>
	<path class="st1" d="M46.9,29.4C47,29,47,28.5,47,28c0-5.2-3.3-10-9-14"/>
	<path class="st1" d="M33,14c-5.7,4-9,8.7-9,14c0,1.6,0.4,2.9,1.2,4"/>
	<path class="st1" d="M38,14c-0.3,0.4-1.8,0.6-2.5,0.6c-0.7,0-2.2-0.2-2.5-0.6c0,0-2.9-5.4-2.8-5.6c1-1.9,3.2-1.5,5.3-1
		C38.4,8.2,39.6,8,40.1,8C40.2,8.8,38,14,38,14z"/>
	<path class="st1" d="M32,27v1c0,1.1,0.9,2,2,2h2c1.1,0,2-0.9,2-2v-0.6c0-0.9-0.6-1.6-1.4-1.9l-3.3-1.1c-0.8-0.3-1.4-1-1.4-1.9V22
		c0-1.1,0.9-2,2-2h2c1.1,0,2,0.9,2,2v1"/>
	<line class="st1" x1="35" y1="20" x2="35" y2="18"/>
	<line class="st1" x1="35" y1="30" x2="35" y2="32"/>
</g>
</svg>
