<?xml version="1.0" encoding="utf-8"?>
<!-- Generator: Adobe Illustrator 22.1.0, SVG Export Plug-In . SVG Version: 6.00 Build 0)  -->
<svg version="1.1" id="Warstwa_1" xmlns="http://www.w3.org/2000/svg" xmlns:xlink="http://www.w3.org/1999/xlink" x="0px" y="0px"
	 viewBox="0 0 60 60" style="enable-background:new 0 0 60 60;" xml:space="preserve">
<style type="text/css">
	.st0{fill:none;stroke:#FFFFFF;stroke-width:2;stroke-miterlimit:10;}
</style>
<g>
	<path class="st0" d="M16,50c0,0,11.9,0,15,0c2.4,0,11.9-3.1,12.8-3.7c0.9-0.6,6.5-7,7.9-8.9c-0.4-0.9-1.7-1.8-3.6-1.5
		c-2.2,0.3-4.9,4.4-5,4.5l-6.7,1.5c-0.2,0-2.6-0.8-4.8-1.4c-0.8-0.2-2.1-1.9-2.1-2.1c0-0.8,0.3-0.8,1.7-1.5c0.9-0.5,3.8-1,4.8-3.3
		c0.9-2.1,0.3-4.1-3.4-2.7c-1.5,0.6-8.2,2.5-11.1,3.7c-1.2,0.7-2.6,2.6-3.5,3.4h-2"/>
	<circle class="st0" cx="45" cy="11" r="4"/>
	<circle class="st0" cx="32" cy="20" r="4"/>
	<circle class="st0" cx="44" cy="27" r="4"/>
	<rect x="8" y="35" class="st0" width="8" height="17"/>
	<line class="st0" x1="12" y1="38" x2="12" y2="41"/>
</g>
</svg>
