<?xml version="1.0" encoding="utf-8"?>
<!-- Generator: Adobe Illustrator 22.1.0, SVG Export Plug-In . SVG Version: 6.00 Build 0)  -->
<svg version="1.1" id="Warstwa_1" xmlns="http://www.w3.org/2000/svg" xmlns:xlink="http://www.w3.org/1999/xlink" x="0px" y="0px"
	 viewBox="0 0 60 60" style="enable-background:new 0 0 60 60;" xml:space="preserve">
<style type="text/css">
	.st0{fill:none;stroke:#FFFFFF;stroke-width:2;stroke-linejoin:round;stroke-miterlimit:10;}
</style>
<g>
	<path class="st0" d="M36,38c2.2,0,4-2.1,4-4v-9c0-3.3-6.5-5-10-5c-3.5,0-10,1.7-10,5v9c0,1.9,1.8,4,4,4"/>
	<path class="st0" d="M48,40c1.9,0,4-1.1,4-3v-9c0-3.3-5.9-5-9-5c-0.3,0-0.6,0-1,0"/>
	<path class="st0" d="M30,17c2.3,0,4-1.6,4-4v-2c0-2.4-1.7-4-4-4c-2.3,0-4,1.6-4,4v2C26,15.4,27.7,17,30,17z"/>
	<line class="st0" x1="48" y1="53" x2="48" y2="30"/>
	<line class="st0" x1="36" y1="53" x2="36" y2="27"/>
	<line class="st0" x1="24" y1="27" x2="24" y2="53"/>
	<line class="st0" x1="30" y1="37" x2="30" y2="53"/>
	<path class="st0" d="M43,20c2.3,0,4-1.6,4-4v-2c0-2.4-1.7-4-4-4c-2.3,0-4,1.6-4,4v2C39,18.4,40.7,20,43,20z"/>
	<path class="st0" d="M12,40c-1.9,0-4-1.1-4-3v-9c0-3.3,5.9-5,9-5c0.3,0,0.6,0,1,0"/>
	<line class="st0" x1="12" y1="53" x2="12" y2="30"/>
	<path class="st0" d="M17,20c-2.3,0-4-1.6-4-4v-2c0-2.4,1.7-4,4-4c2.3,0,4,1.6,4,4v2C21,18.4,19.3,20,17,20z"/>
</g>
</svg>
