<?xml version="1.0" encoding="utf-8"?>
<!-- Generator: Adobe Illustrator 22.1.0, SVG Export Plug-In . SVG Version: 6.00 Build 0)  -->
<svg version="1.1" id="Warstwa_1" xmlns="http://www.w3.org/2000/svg" xmlns:xlink="http://www.w3.org/1999/xlink" x="0px" y="0px"
	 viewBox="0 0 60 60" style="enable-background:new 0 0 60 60;" xml:space="preserve">
<style type="text/css">
	.st0{fill:none;stroke:#FFFFFF;stroke-width:2;stroke-miterlimit:10;}
	.st1{fill:none;stroke:#FFFFFF;stroke-width:2;stroke-linejoin:round;stroke-miterlimit:10;}
	.st2{fill:none;stroke:#FFFFFF;stroke-width:2;stroke-linecap:round;stroke-miterlimit:10;}
</style>
<g>
	<path class="st0" d="M22.8,8.6c-1.7,0-3,1.3-3,3v37c0,1.7-1.3,3-3,3c-1.7,0-3-1.3-3-3v-19c0-1.7-1.3-3-3-3c-1.7,0-3,1.3-3,3v14h4"
		/>
	<path class="st0" d="M22.8,8.6c1.7,0,3,1.3,3,3v2h24v-2c0-1.7-1.3-3-3-3H22.8"/>
	<line class="st0" x1="10.8" y1="26.6" x2="17.8" y2="26.6"/>
	<path class="st0" d="M16.8,51.6h26c1.7,0,3-1.3,3-3v-12"/>
	<path class="st1" d="M30.9,42.3c-1.5-2.4-1-6.9-0.5-8.5l1.5-0.4c0,0-0.4-2.2,1.3-4.4c2-2.6,7.9-7.8,19.1-8.4
		c-4.1,4.6-7,12.4-7.8,13.5c-1.5,1-3,1.7-3,1.7l1.4,1.3C42.8,37.2,35.4,43.6,30.9,42.3z"/>
	<path class="st2" d="M43.5,27.1c-8.6,6.5-13,14.7-14.8,20.1"/>
	<line class="st0" x1="45.8" y1="18.6" x2="45.8" y2="13.6"/>
</g>
</svg>
