<?xml version="1.0" encoding="utf-8"?>
<!-- Generator: Adobe Illustrator 22.1.0, SVG Export Plug-In . SVG Version: 6.00 Build 0)  -->
<svg version="1.1" id="Warstwa_1" xmlns="http://www.w3.org/2000/svg" xmlns:xlink="http://www.w3.org/1999/xlink" x="0px" y="0px"
	 viewBox="0 0 60 60" style="enable-background:new 0 0 60 60;" xml:space="preserve">
<style type="text/css">
	.st0{fill:none;stroke:#FFFFFF;stroke-width:2;stroke-linejoin:round;stroke-miterlimit:10;}
</style>
<g>
	<path class="st0" d="M49.6,10.4c-1.3-1.3-6,1.1-7.3,2.4L20.6,34.5c-1.5,1.5-7.8,9.8-6.3,11.2c1.4,1.4,9.8-4.9,11.2-6.3l21.7-21.7
		C48.5,16.4,51,11.7,49.6,10.4z"/>
	<polyline class="st0" points="30.9,34 35.9,39 41.4,49.4 43.9,49.4 39.1,25.7 	"/>
	<polyline class="st0" points="34.3,20.9 10.6,16.1 10.6,18.6 21,24.1 26,29.1 	"/>
	<polyline class="st0" points="24,40.9 25.1,49.6 22.8,50.6 19,44.2 	"/>
	<polyline class="st0" points="19.1,36 10.4,34.9 9.4,37.2 15.8,41 	"/>
</g>
</svg>
