<?xml version="1.0" encoding="utf-8"?>
<!-- Generator: Adobe Illustrator 22.1.0, SVG Export Plug-In . SVG Version: 6.00 Build 0)  -->
<svg version="1.1" id="Warstwa_1" xmlns="http://www.w3.org/2000/svg" xmlns:xlink="http://www.w3.org/1999/xlink" x="0px" y="0px"
	 viewBox="0 0 60 60" style="enable-background:new 0 0 60 60;" xml:space="preserve">
<style type="text/css">
	.st0{fill:none;stroke:#FFFFFF;stroke-width:2;stroke-linejoin:round;stroke-miterlimit:10;}
	.st1{fill:none;stroke:#FFFFFF;stroke-width:2;stroke-miterlimit:10;}
</style>
<g>
	<polyline class="st0" points="46,30 46,50 14,50 14,30 	"/>
	<polyline class="st0" points="8,32 30,10 52,32 	"/>
	<polyline class="st0" points="21,15 21,11 16,11 16,20 	"/>
	<path class="st1" d="M38,44c0,0.6-0.4,1-1,1H23c-0.6,0-1-0.4-1-1V33c0-0.6,0.4-1,1-1h14c0.6,0,1,0.4,1,1V44z"/>
	<path class="st1" d="M25,27c0-2.8,2.2-5,5-5c2.8,0,5,2.2,5,5v5H25V27z"/>
</g>
</svg>
