<?xml version="1.0" encoding="utf-8"?>
<!-- Generator: Adobe Illustrator 22.1.0, SVG Export Plug-In . SVG Version: 6.00 Build 0)  -->
<svg version="1.1" id="Warstwa_1" xmlns="http://www.w3.org/2000/svg" xmlns:xlink="http://www.w3.org/1999/xlink" x="0px" y="0px"
	 viewBox="0 0 60 60" style="enable-background:new 0 0 60 60;" xml:space="preserve">
<style type="text/css">
	.st0{fill:none;stroke:#FFFFFF;stroke-width:2;stroke-miterlimit:10;}
	.st1{fill:none;stroke:#FFFFFF;stroke-width:2;stroke-linejoin:round;stroke-miterlimit:10;}
</style>
<g>
	<polyline class="st0" points="24,30 24,35 12,35 12,24 21,24 	"/>
	<polyline class="st0" points="15,29 18,32 25,24 	"/>
	<polyline class="st0" points="24,46 24,51 12,51 12,40 21,40 	"/>
	<polyline class="st0" points="15,45 18,48 25,40 	"/>
	<polyline class="st0" points="24,14 24,19 12,19 12,8 21,8 	"/>
	<polyline class="st0" points="15,13 18,16 25,8 	"/>
	<path class="st1" d="M45,38c2.2,0,4-2.1,4-4v-9c0-3.3-6.5-5-10-5c-3.5,0-10,1.7-10,5v9c0,1.9,1.8,4,4,4"/>
	<path class="st1" d="M39,17c2.3,0,4-1.6,4-4v-2c0-2.4-1.7-4-4-4c-2.3,0-4,1.6-4,4v2C35,15.4,36.7,17,39,17z"/>
	<line class="st1" x1="45" y1="53" x2="45" y2="27"/>
	<line class="st1" x1="33" y1="27" x2="33" y2="53"/>
	<line class="st1" x1="39" y1="37" x2="39" y2="53"/>
</g>
</svg>
