<?xml version="1.0" encoding="utf-8"?>
<!-- Generator: Adobe Illustrator 22.1.0, SVG Export Plug-In . SVG Version: 6.00 Build 0)  -->
<svg version="1.1" id="Warstwa_1" xmlns="http://www.w3.org/2000/svg" xmlns:xlink="http://www.w3.org/1999/xlink" x="0px" y="0px"
	 viewBox="0 0 60 60" style="enable-background:new 0 0 60 60;" xml:space="preserve">
<style type="text/css">
	.st0{fill:none;stroke:#FFFFFF;stroke-width:2;stroke-linejoin:round;stroke-miterlimit:10;}
	.st1{fill:none;stroke:#FFFFFF;stroke-width:2;stroke-miterlimit:10;}
</style>
<g>
	<path class="st0" d="M26,46.2c2.4,1.3,5.1,2,8,2"/>
	<path class="st0" d="M34,10c-9.3,0-16.9,7.4-17.9,17"/>
	<path class="st0" d="M34.1,10C28.5,10,24,18.5,24,29s4.5,19,10.1,19"/>
	<path class="st0" d="M34.1,10C44,10,52,18.6,52,29.1c0,10.5-8.1,19.1-18,19.1"/>
	<path class="st0" d="M34.1,10c5.5,0,9.9,8.5,9.9,19s-4.4,19-9.9,19"/>
	<line class="st0" x1="51" y1="22" x2="17" y2="22"/>
	<line class="st0" x1="51" y1="36" x2="22" y2="36"/>
	<line class="st1" x1="34" y1="10" x2="34" y2="48"/>
	<path class="st0" d="M24,51v-4c0-3.3-5.2-5-8-5c-2.8,0-8,1.7-8,5v4"/>
	<path class="st0" d="M16,39c2.3,0,4-1.6,4-4v-2c0-2.4-1.7-4-4-4c-2.3,0-4,1.6-4,4v2C12,37.4,13.7,39,16,39z"/>
</g>
</svg>
