<?xml version="1.0" encoding="utf-8"?>
<!-- Generator: Adobe Illustrator 22.1.0, SVG Export Plug-In . SVG Version: 6.00 Build 0)  -->
<svg version="1.1" id="Warstwa_1" xmlns="http://www.w3.org/2000/svg" xmlns:xlink="http://www.w3.org/1999/xlink" x="0px" y="0px"
	 viewBox="0 0 60 60" style="enable-background:new 0 0 60 60;" xml:space="preserve">
<style type="text/css">
	.st0{fill:none;stroke:#FFFFFF;stroke-width:2;stroke-miterlimit:10;}
</style>
<g>
	<path class="st0" d="M41,28v-2c0-3.7-3.1-6.4-6-7l-2,4l-3-3l-3,3l-2-4c-2.9,0.6-6,3.3-6,7v2"/>
	<path class="st0" d="M30,17c2.3,0,4-1.9,4-4v-2.1C34,8.7,32.3,7,30,7s-4,1.7-4,3.9V13C26,15.1,27.7,17,30,17z"/>
	<polyline class="st0" points="45,39 46,39 49,33 49,30 30,30 11,30 11,33 14,39 15,39 	"/>
	<line class="st0" x1="17" y1="54" x2="17" y2="34"/>
	<line class="st0" x1="43" y1="54" x2="43" y2="34"/>
	<rect x="22" y="35" class="st0" width="16" height="18"/>
</g>
</svg>
