<?xml version="1.0" encoding="utf-8"?>
<!-- Generator: Adobe Illustrator 22.1.0, SVG Export Plug-In . SVG Version: 6.00 Build 0)  -->
<svg version="1.1" id="Warstwa_1" xmlns="http://www.w3.org/2000/svg" xmlns:xlink="http://www.w3.org/1999/xlink" x="0px" y="0px"
	 viewBox="0 0 60 60" style="enable-background:new 0 0 60 60;" xml:space="preserve">
<style type="text/css">
	.st0{fill:none;stroke:#FFFFFF;stroke-width:2;stroke-linejoin:round;stroke-miterlimit:10;}
</style>
<g>
	<path class="st0" d="M29.8,51.6c0.9-0.2,17-7.8,17-19c0,0,0-10.7,0-18c-4.3,0-15.3-4.8-17-7c-1.7,2.2-12.7,7-17,7c0,7.3,0,18,0,18
		C12.8,43.9,28.8,51.4,29.8,51.6z"/>
	<circle class="st0" cx="29.8" cy="29.6" r="11"/>
	<path class="st0" d="M33.8,34.1c-1.1,0.9-2.5,1.5-4,1.5c-3.3,0-6-2.7-6-6c0-3.3,2.7-6,6-6c1.5,0,2.9,0.6,4,1.5"/>
</g>
</svg>
